<svg width="48" height="71" viewBox="0 0 48 71" fill="none" xmlns="http://www.w3.org/2000/svg">
<path d="M22.5524 69.8322L3.5 36.5H44.5L23.926 69.8552C23.6077 70.3712 22.8532 70.3586 22.5524 69.8322Z" fill="#C4C5E6"/>
<circle cx="24" cy="24" r="24" fill="#C4C5E6"/>
<path d="M42.9748 17.0748L42.9656 17.2023C42.9014 17.636 42.7924 17.9838 42.6296 18.2849C41.8921 19.6891 40.3526 20.1141 39.346 20.0399L39.3337 20.0731C39.3036 20.1399 39.2853 20.1809 39.2648 20.2206C39.0431 20.6303 38.7311 20.9829 38.3615 21.2434L38.2747 21.298C38.1787 21.3586 38.0831 21.4184 37.9841 21.4651C37.8527 21.5205 37.7292 21.5694 37.6075 21.6143C37.3308 21.6842 37.0834 21.7404 36.8447 21.7404C36.7858 21.7439 36.7238 21.7457 36.6632 21.7457C36.2761 21.7457 35.9423 21.6741 35.639 21.5969C35.0517 21.4276 34.5852 21.236 34.2069 21.01C34.0219 20.8939 33.8731 20.7599 33.7605 20.6094C33.6532 20.4453 33.5877 20.2826 33.5572 20.1146C33.4987 19.7969 33.5694 19.4783 33.7566 19.2191C33.9359 18.9687 34.2086 18.7972 34.5045 18.7492C34.8296 18.702 35.1429 18.7911 35.4689 19.0084L35.5915 19.0952C35.7791 19.2292 36.0126 19.3963 36.2997 19.5159C36.4306 19.5665 36.6318 19.6367 36.8054 19.6394C36.8434 19.6415 36.8692 19.6428 36.8945 19.6428C37.0315 19.6428 37.1471 19.6136 37.247 19.5538C37.3496 19.4888 37.439 19.3967 37.5163 19.2885C37.4578 19.1999 37.4137 19.1013 37.3871 18.9953C37.2409 18.7636 36.5327 18.1221 35.7508 17.5653C35.5417 17.4165 35.403 17.1948 35.3602 16.9418C35.3174 16.6887 35.3764 16.4343 35.5252 16.2248C35.8223 15.809 36.4481 15.7029 36.8652 15.9992C37.9627 16.7807 38.6713 17.444 39.0209 18.0104C39.1535 18.0588 39.2866 18.1077 39.411 18.1431L39.558 18.1623C39.589 18.1662 39.6095 18.1679 39.6305 18.1679H39.702C39.7662 18.1679 39.8316 18.1614 39.8975 18.154C40.0804 18.1265 40.2274 18.0876 40.3522 18.0331C40.6642 17.9044 40.916 17.6919 41.0644 17.4335C41.1311 17.3218 41.1822 17.1717 41.2223 16.9714C41.2197 16.9649 41.2241 16.9234 41.2289 16.882C41.235 16.8287 41.2402 16.7825 41.2358 16.7419L41.2057 16.4408C41.1433 16.0764 40.9553 15.6562 40.6612 15.226C40.1598 14.489 39.3796 13.741 38.2764 12.9399C37.7759 12.5716 37.2344 12.2286 36.7662 11.9362L35.9654 11.4684C35.8712 11.4091 35.7935 11.3729 35.7172 11.3367L35.5963 11.2773C35.5278 11.2437 35.4475 11.2145 35.3676 11.1852C35.3148 11.166 35.262 11.1464 35.2114 11.1259C34.2632 10.8034 33.1142 10.5796 31.6084 10.4247C30.1649 10.2972 28.964 10.2876 27.8901 10.3937C27.5764 10.4199 27.267 10.4683 27.0012 10.5119C26.7119 10.5682 26.4492 10.6306 26.1342 10.7061L20.8206 12.0004C20.0548 12.1985 19.3038 12.366 18.5777 12.5284C18.2443 12.6026 17.9166 12.6759 17.5958 12.7505L14.7416 13.4076C13.8392 13.6442 12.8997 13.7807 12.1705 13.7812C12.0601 13.7842 11.9777 13.786 11.8965 13.786C11.7311 13.786 11.5718 13.7794 11.4182 13.7733C11.2952 13.7685 11.1752 13.7637 11.0574 13.7624L10.1502 13.6991C9.88705 13.6738 9.65534 13.6581 9.45417 13.6446C9.23948 13.6302 9.05839 13.6175 8.91439 13.5992C8.64908 13.5652 8.41606 13.5054 8.22188 13.422C8.03599 13.3426 7.86276 13.2283 7.74625 13.1087C7.50886 12.8683 7.37839 12.5554 7.3893 12.2513C7.40239 11.9004 7.60486 11.6055 7.95919 11.42C8.14334 11.3249 8.32836 11.2699 8.5605 11.2407C8.7909 11.2132 9.03963 11.2193 9.29752 11.2642C9.4245 11.2904 9.56283 11.3253 9.72036 11.3646C9.92937 11.417 10.1733 11.4785 10.4543 11.5365L10.6598 11.5723C10.844 11.6046 11.0412 11.6395 11.2498 11.67C11.3384 11.6779 11.4431 11.6901 11.5505 11.7032C11.7503 11.7272 11.9563 11.7521 12.1631 11.7564L12.7444 11.7708C12.826 11.7708 12.9054 11.7621 12.9861 11.7534C13.0537 11.7464 13.1222 11.7394 13.1921 11.7355C13.4308 11.729 13.7218 11.6735 14.0303 11.6151C14.1486 11.5924 14.269 11.5697 14.3881 11.5492L17.9982 10.8549C18.7867 10.7009 19.6022 10.542 20.4392 10.3466L25.7912 9.12823C26.0779 9.06277 26.4139 8.98554 26.7254 8.92968C27.0501 8.87819 27.3944 8.82757 27.7435 8.80052C28.9204 8.69143 30.1723 8.70321 31.7606 8.84241C32.955 8.96721 34.3596 9.15703 35.7494 9.6187C35.8145 9.64401 35.8686 9.66364 35.9222 9.68284C36.0366 9.7243 36.1505 9.76619 36.2678 9.82161L36.373 9.87179C36.5131 9.93812 36.6558 10.0062 36.764 10.0738L37.5988 10.5521C38.132 10.8776 38.6923 11.225 39.2321 11.6111C40.11 12.2356 41.2249 13.1004 42.0536 14.2529C42.5074 14.8891 42.7889 15.4983 42.9145 16.1166L42.9621 16.3719L42.983 16.6559C42.9974 16.7943 42.9861 16.937 42.9748 17.0748ZM13.6201 24.1295L14.3672 24.2508C14.5993 24.2879 14.8276 24.2962 15.0484 24.3041L15.5397 24.322C15.6017 24.3259 15.6641 24.3281 15.7269 24.3281C15.8068 24.3281 15.887 24.3246 15.9638 24.3172L16.2287 24.2997C16.4111 24.2884 16.5953 24.277 16.7977 24.2526C16.8841 24.2351 16.9705 24.2199 17.0574 24.2042C17.2498 24.1692 17.4436 24.1343 17.6456 24.082C18.13 23.9345 18.7561 23.7141 19.2937 23.3249C19.7938 22.998 20.2101 22.5914 20.5771 22.2322C20.9563 21.8609 21.3145 21.5109 21.6645 21.3407C21.709 21.3233 21.7522 21.3032 21.7954 21.2827C21.8421 21.2604 21.8884 21.2373 21.9263 21.2264C22.0337 21.2024 22.1401 21.1767 22.2322 21.1522C22.2868 21.1418 22.3448 21.1409 22.4033 21.1387C22.4513 21.137 22.4997 21.1352 22.5407 21.1313L22.6725 21.1191L23.2123 21.1749C23.2852 21.1819 23.372 21.1963 23.4584 21.2107L23.6177 21.236C23.9061 21.2775 24.1954 21.3115 24.4856 21.3372C25.6594 21.4385 26.831 21.418 27.9481 21.2783C28.5634 21.202 29.1193 21.0977 29.6486 20.9589C30.3316 20.7774 30.8469 20.5832 31.3199 20.3288C31.5521 20.2027 31.8553 20.0212 32.1451 19.7371C32.2934 19.5927 32.4182 19.4303 32.5286 19.2375C32.6377 19.0376 32.7189 18.7784 32.7329 18.5938C32.8572 17.7975 32.6063 17.0866 32.375 16.6328C32.252 16.3841 32.0971 16.1384 31.9025 15.8823C31.8161 15.7675 31.7253 15.658 31.6332 15.5554C31.5865 15.5018 31.5381 15.4498 31.4888 15.3992C31.4286 15.3364 31.343 15.2535 31.268 15.1871L31.2209 15.1496C31.189 15.1234 31.1572 15.0981 31.1227 15.0767L31.0677 15.017L30.9285 14.9567L30.9045 14.9838C30.8373 14.9554 30.7701 14.9362 30.709 14.9188L30.62 14.8926C30.5785 14.8799 30.5358 14.8677 30.5083 14.862L30.2316 14.8114C30.0719 14.7822 29.9196 14.7591 29.7691 14.7368L29.5404 14.7015C28.6459 14.5675 27.8168 14.4628 27.054 14.3698L23.3833 13.9308C23.1905 13.9064 23.0146 13.8807 22.858 13.8575C22.652 13.8274 22.4783 13.8017 22.3295 13.7895L22.2401 13.7877C21.7718 13.7877 21.366 13.9396 21.0972 14.2158C20.8869 14.4322 20.7752 14.7067 20.7826 14.9886C20.7979 15.569 21.2447 16.1541 22.2457 16.1541H22.2462C22.3444 16.1532 22.46 16.1458 22.5922 16.1371C22.7772 16.1253 22.9972 16.1109 23.2546 16.1109L23.5134 16.1092C23.8908 16.1092 24.3281 16.1196 24.8177 16.138C25.4233 16.1598 26.1128 16.1982 26.8686 16.2527C27.7103 16.3099 28.5307 16.3823 29.3048 16.4683L29.5286 16.4949C29.67 16.5115 29.8123 16.5276 29.9519 16.5486L30.2255 16.5896L30.2556 16.6167C30.2892 16.6498 30.3228 16.683 30.3582 16.7214C30.4245 16.7908 30.4886 16.8641 30.5489 16.9396C30.6854 17.1093 30.7893 17.2638 30.8678 17.4139C31.0498 17.7508 31.1257 18.0776 31.0847 18.3774C31.0825 18.4175 31.0804 18.4228 31.0734 18.4468C31.0546 18.4791 31.0245 18.5271 30.9748 18.5755C30.8757 18.6776 30.7186 18.7911 30.534 18.894C29.8468 19.268 28.9086 19.5368 27.7457 19.6917C26.7442 19.8231 25.6786 19.8444 24.6252 19.7532C24.3643 19.7306 24.1051 19.6987 23.8485 19.6625L23.7154 19.6411C23.6286 19.6267 23.5417 19.6123 23.4379 19.6005L22.7157 19.5281L22.3238 19.5468C22.2056 19.5521 22.0873 19.5578 21.9556 19.5813L21.4633 19.6983C21.3446 19.7332 21.2308 19.7838 21.1177 19.8348L20.9711 19.8999C20.3689 20.2005 19.9243 20.6234 19.5316 20.996L19.4953 21.0305C19.1 21.4175 18.7614 21.7239 18.3905 21.9617C17.7307 22.3989 16.9199 22.6206 15.9813 22.6206L15.8984 22.621C15.7993 22.6298 15.702 22.6263 15.5908 22.6154L15.1483 22.5866C14.9589 22.5752 14.7804 22.5643 14.6072 22.5298L13.9806 22.4076C13.7764 22.3658 13.5739 22.3077 13.3732 22.2479C12.6741 22.0459 11.9336 21.7797 11.1097 21.4354C10.4168 21.1431 9.78668 20.8564 9.23686 20.5841C8.70799 20.3244 8.23105 20.077 7.81868 19.8475C7.61621 19.7371 7.43992 19.6284 7.28632 19.5338C7.13796 19.4426 7.00966 19.3636 6.89926 19.3068C6.23337 18.9621 5.51206 19.2584 5.31483 19.9038C5.13505 20.465 5.24021 21.1583 5.88079 21.4433C6.01257 21.5009 6.16923 21.5576 6.35163 21.6231C6.51134 21.6807 6.69156 21.7457 6.89185 21.8251L8.41999 22.436C9.05534 22.6917 9.73039 22.9487 10.4281 23.2001C11.1215 23.4471 11.9593 23.732 12.9115 23.9698C13.1419 24.0283 13.3771 24.0859 13.6201 24.1295ZM39.1422 35.396C39.0309 35.3834 38.8908 35.3768 38.7254 35.369C38.5596 35.3615 38.3672 35.3524 38.1455 35.334L37.412 35.2922C37.3169 35.2922 37.22 35.2891 37.1205 35.2856C36.9346 35.2799 36.723 35.2743 36.5397 35.2839C35.9414 35.2843 35.146 35.403 34.4194 35.5998L32.1412 36.1361C31.8741 36.1994 31.6009 36.2613 31.323 36.3246C30.754 36.4538 30.1657 36.5877 29.567 36.7439L25.326 37.7864C25.0729 37.8475 24.8722 37.8955 24.6466 37.9396C24.4188 37.9767 24.1893 38.0124 23.9489 38.033C23.1019 38.1176 22.1489 38.1098 21.0121 38.009C19.8239 37.8872 18.9189 37.7109 18.1762 37.4578C18.1361 37.4412 18.0942 37.426 18.0527 37.4107C17.9921 37.3884 17.9318 37.3666 17.8821 37.3418L17.7839 37.2938C17.7285 37.2671 17.6713 37.2405 17.5989 37.1951L16.9636 36.8225C16.5909 36.589 16.1606 36.3159 15.7697 36.0266C14.907 35.3991 14.2987 34.8139 13.9103 34.2379C13.6904 33.9137 13.5512 33.6012 13.5045 33.3198C13.4757 33.1954 13.4875 33.0737 13.4962 32.9685C13.525 32.8311 13.5595 32.7311 13.6044 32.6587C13.7044 32.4876 13.8754 32.3467 14.091 32.2603C14.2022 32.2123 14.3292 32.1905 14.4134 32.1791C14.4532 32.1756 14.4898 32.17 14.5714 32.173L14.5814 32.1704L14.7455 32.1975C14.7765 32.2018 14.8075 32.2062 14.8315 32.2127C14.8638 32.225 14.8987 32.2394 14.9314 32.252C15.1723 32.619 15.6623 33.1435 16.6873 33.8735C16.851 33.99 17.0434 34.0516 17.2441 34.0516C17.5544 34.0516 17.8472 33.9006 18.027 33.6484C18.3346 33.2168 18.2338 32.6155 17.8022 32.3079C17.2372 31.9051 16.7 31.4268 16.5617 31.2392C16.5494 31.1969 16.532 31.1576 16.515 31.1188C16.5425 31.0926 16.5713 31.0703 16.6005 31.0529C16.717 30.9883 16.9343 31.0127 17.1769 31.1162C17.3654 31.1999 17.5212 31.3178 17.6582 31.4216C17.7023 31.4548 17.7429 31.4853 17.7848 31.515C18.0479 31.693 18.3333 31.7471 18.6309 31.6655C18.8888 31.5922 19.138 31.4129 19.3151 31.1742C19.5019 30.922 19.5922 30.6252 19.57 30.3381C19.5573 30.178 19.5119 30.0266 19.4268 29.8756C19.3352 29.7346 19.2086 29.6133 19.0472 29.5125C18.7422 29.3332 18.3499 29.1778 17.8411 29.0356C17.5871 28.9727 17.3074 28.9151 16.9797 28.9151C16.9234 28.9151 16.8658 28.9169 16.8126 28.9204C16.5337 28.93 15.9918 29.0007 15.4917 29.3594C15.1714 29.5863 14.9009 29.8948 14.7006 30.2705C14.6971 30.2783 14.694 30.2862 14.6914 30.2936L14.6268 30.2932L14.5317 30.2971C14.396 30.3002 14.2625 30.3176 14.1215 30.3407C13.8235 30.397 13.5669 30.4782 13.3391 30.5873C12.7753 30.8495 12.3137 31.2824 12.0392 31.8052C11.9 32.0661 11.807 32.3637 11.7534 32.7272C11.7198 33.0881 11.735 33.3948 11.7988 33.6575C11.9061 34.1772 12.1413 34.6852 12.5183 35.2114C13.1942 36.1452 14.0591 36.8199 14.8153 37.3562C15.2556 37.6703 15.723 37.9583 16.1318 38.2075L16.7995 38.5889C16.8894 38.6447 17.0137 38.7045 17.135 38.7617L17.2105 38.7975C17.3087 38.8437 17.4025 38.8782 17.4972 38.9122L17.6377 38.9646C18.757 39.3359 19.8462 39.4856 20.8598 39.5921C21.5694 39.6545 22.1942 39.6846 22.7716 39.6846C23.238 39.6846 23.6722 39.6658 24.0964 39.6266C24.3931 39.6034 24.6916 39.5589 24.9224 39.5218C25.1654 39.4786 25.4312 39.4184 25.6542 39.3674L29.9489 38.3982C30.6244 38.2424 31.282 38.1163 31.9182 37.9946L34.7733 37.4578C34.8649 37.4426 34.9579 37.4255 35.0495 37.4085C35.2978 37.3631 35.5321 37.3199 35.7132 37.3173C35.7691 37.3151 35.8236 37.3099 35.8773 37.3047C35.9353 37.299 35.9929 37.2933 36.0518 37.2933L36.5096 37.309C36.6724 37.3138 36.8329 37.3352 36.9857 37.3553C37.0699 37.3662 37.1524 37.3771 37.2191 37.3832C37.3893 37.4103 37.5499 37.4408 37.6987 37.4692L37.8418 37.4962C38.0565 37.5438 38.2433 37.5953 38.4047 37.6394C38.5369 37.6756 38.6526 37.707 38.7621 37.7306C38.9825 37.7681 39.1854 37.7655 39.3809 37.7306C39.5707 37.6948 39.723 37.6354 39.8932 37.5298C40.1877 37.3396 40.3566 37.0459 40.3688 36.6859C40.3426 35.9367 39.9189 35.4903 39.1422 35.396ZM41.6273 29.156C41.5204 29.1102 41.3929 29.0674 41.2446 29.0181C41.1154 28.9749 40.9697 28.9269 40.8086 28.8654L39.5803 28.3902C39.0444 28.1807 38.5012 27.9787 37.9649 27.7898C37.4024 27.5925 36.7247 27.3656 35.9628 27.1797C35.7756 27.1322 35.5849 27.0859 35.386 27.051L34.7785 26.9546C34.5861 26.9244 34.3993 26.9183 34.2187 26.9127L34.1249 26.9096C34.0559 26.9096 33.9874 26.9061 33.9185 26.9026C33.7714 26.8948 33.6169 26.8895 33.4738 26.9044L33.2596 26.9192C33.1099 26.9288 32.9593 26.9384 32.7913 26.9594L32.5928 26.9964C32.43 27.0261 32.2664 27.0562 32.0932 27.1012C31.7249 27.2138 31.1816 27.4023 30.7291 27.7308C30.3215 28.0018 29.9681 28.3378 29.6473 28.659C29.3305 28.9723 29.0853 29.1909 28.8632 29.3035C28.827 29.3175 28.7912 29.334 28.7558 29.3511C28.7257 29.3655 28.6961 29.3812 28.6773 29.3868C28.5953 29.4047 28.5145 29.4239 28.4517 29.4423C28.4137 29.4497 28.3727 29.4501 28.3321 29.4514C28.2942 29.4523 28.2562 29.454 28.2239 29.4571L28.1345 29.4667L27.7195 29.4239C27.6636 29.4183 27.5938 29.4069 27.524 29.3956L27.3953 29.3755C27.1622 29.3428 26.9279 29.314 26.694 29.2939C25.7445 29.2123 24.7989 29.228 23.8952 29.3402C23.3942 29.4021 22.943 29.4863 22.5167 29.598C22.1419 29.6971 21.647 29.8446 21.1452 30.1138C20.9615 30.2124 20.7202 30.3538 20.4846 30.5738C20.3484 30.7003 20.0233 31.0433 19.9391 31.5045C19.8318 32.1067 19.9265 32.6914 20.2267 33.2888C20.3253 33.4926 20.4501 33.6951 20.6068 33.9058C20.6766 34.0023 20.7516 34.093 20.8297 34.1838L20.9681 34.333C21.0117 34.3802 21.0597 34.4255 21.1081 34.4714L21.1989 34.5455C21.2198 34.5564 21.2386 34.5713 21.274 34.5966L21.4424 34.707L21.4764 34.6843C21.5284 34.7066 21.5855 34.7258 21.6518 34.7432L21.8953 34.8135L22.0498 34.841C22.189 34.8667 22.3225 34.8872 22.4556 34.9077L22.6197 34.9335C23.3327 35.0439 23.9969 35.1311 24.6078 35.2092L27.5388 35.588C27.6972 35.6103 27.8412 35.6351 27.9686 35.657C28.1301 35.6849 28.2676 35.708 28.3897 35.7194L28.4521 35.7207C28.8117 35.7207 29.1215 35.5967 29.3493 35.3628C29.567 35.139 29.6862 34.83 29.6774 34.515C29.6609 33.9372 29.2952 33.3543 28.5145 33.3543L28.4692 33.3547C28.388 33.3564 28.2924 33.3652 28.1829 33.3752C28.0385 33.3887 27.8678 33.4044 27.6667 33.4079C27.3246 33.4197 26.9065 33.4162 26.4257 33.4036C25.9478 33.3914 25.3985 33.3656 24.7924 33.3259C24.1265 33.2858 23.4732 33.2321 22.8532 33.1662L22.6786 33.147C22.5608 33.1343 22.443 33.1217 22.3273 33.1055L22.1855 33.0881C22.1742 33.0767 22.1628 33.0667 22.1528 33.0575L22.1122 33.0152C22.0625 32.9628 22.0136 32.9087 21.9678 32.8516C21.8661 32.7263 21.7902 32.6151 21.7348 32.5116C21.6593 32.3694 21.6117 32.249 21.5916 32.1578L21.5803 32.0919C21.5737 32.0556 21.5668 32.0181 21.5663 31.9583C21.5641 31.94 21.5681 31.8911 21.5698 31.8702L21.5711 31.8479C21.5785 31.8239 21.5899 31.8043 21.6309 31.7637C21.6964 31.6978 21.8037 31.6206 21.9298 31.5482C22.4526 31.261 23.2022 31.0463 24.0968 30.9272C24.8857 30.8234 25.7249 30.8063 26.5526 30.8779C26.7582 30.8962 26.962 30.9207 27.1631 30.9495L27.2661 30.966C27.3355 30.9774 27.4049 30.9892 27.4913 30.9988L28.0891 31.0581L28.4094 31.0433C28.5102 31.0389 28.6105 31.0341 28.7249 31.0136L29.1377 30.9159C29.238 30.8862 29.3353 30.843 29.4318 30.7994L29.5535 30.7452C30.0549 30.4948 30.431 30.1383 30.7334 29.852L30.771 29.8162C31.0804 29.5143 31.3448 29.2764 31.631 29.0936C32.1276 28.7663 32.7403 28.6005 33.4524 28.6005L33.538 28.6001C33.637 28.5918 33.7391 28.6018 33.8404 28.6106C33.9097 28.6171 33.9787 28.6228 34.0385 28.625L34.1231 28.6306C34.268 28.6398 34.4046 28.6485 34.5368 28.676L35.0242 28.7738C35.1826 28.8074 35.3406 28.8532 35.4977 28.9012C36.0505 29.0639 36.634 29.2778 37.2806 29.5548C37.8265 29.7896 38.3244 30.0209 38.7604 30.2421C39.1884 30.4581 39.5641 30.6597 39.8792 30.8426C40.0358 30.9311 40.1716 31.0202 40.2898 31.0974C40.4107 31.1764 40.5154 31.244 40.6057 31.2911C41.1582 31.5831 41.8136 31.2532 42.0169 30.6174C42.2521 29.9218 42.102 29.362 41.6273 29.156Z" fill="white" fill-opacity="0.9"/>
</svg>
